<svg fill="#fff" version="1.1" id="Camada_1" xmlns="http://www.w3.org/2000/svg" xmlns:xlink="http://www.w3.org/1999/xlink" x="0px" y="0px"
	 viewBox="0 0 100 100" style="enable-background:new 0 0 100 100;" xml:space="preserve">
<g>
	<g>
		<path d="M81.7,49.2L77,55.9h10.7V64c-2.6,2-6.2,3.3-10.1,3.3c-8.6,0-14.3-6.6-14.3-15.5v-0.1c0-8.3,5.9-15.3,13.6-15.3
			c5.3,0,8.5,1.8,11.8,4.6l4.7-5.8c-4.3-3.8-8.8-5.9-16.1-5.9c-7.1,0-13,3.2-16.9,8.2l-3.3-8h-8.7L30.2,73.7V38.8h13l3.7-9H5.1v9
			h15.6v35.3h18.9l2.5-6.3l4.8-12.2h0l5.7-14.3l3.1,7.9c-0.1,0.9-0.2,1.8-0.2,2.7v0.1c0,12.6,8.6,22.3,21.8,22.3
			c7.4,0,13.4-3.1,17.5-6.8V49.2H81.7z"/>
	</g>
</g>
</svg>
